<?xml version="1.0" encoding="UTF-8"?>
<svg width="12px" height="12px" viewBox="0 0 12 12" version="1.1" xmlns="http://www.w3.org/2000/svg" xmlns:xlink="http://www.w3.org/1999/xlink">
    <!-- Generator: Sketch 63.1 (92452) - https://sketch.com -->
    <title>locate-me</title>
    <desc>Created with Sketch.</desc>
    <g id="Page-1" stroke="none" stroke-width="1" fill="none" fill-rule="evenodd">
        <g id="04_Status-Tracker" transform="translate(-248.000000, -333.000000)" fill="#0068A9">
            <path d="M248,339.033803 L248,338.966197 C248,338.797182 248.056337,338.650705 248.169014,338.526761 C248.281691,338.402816 248.416901,338.340845 248.574648,338.340845 L249.369014,338.340845 C249.447888,337.822533 249.599999,337.33803 249.825352,336.887324 C250.050705,336.436617 250.338026,336.039438 250.687324,335.695775 C251.036621,335.352111 251.436617,335.06479 251.887324,334.833803 C252.33803,334.602816 252.816899,334.447888 253.323944,334.369014 L253.323944,333.591549 C253.323944,333.433802 253.388732,333.295775 253.51831,333.177465 C253.647888,333.059154 253.802816,333 253.983099,333 L254.016901,333 C254.197184,333 254.352112,333.059154 254.48169,333.177465 C254.611268,333.295775 254.676056,333.433802 254.676056,333.591549 L254.676056,334.369014 C255.183101,334.447888 255.66197,334.602816 256.112676,334.833803 C256.563383,335.06479 256.963379,335.352111 257.312676,335.695775 C257.661974,336.039438 257.949295,336.436617 258.174648,336.887324 C258.400001,337.33803 258.552112,337.822533 258.630986,338.340845 L259.408451,338.340845 C259.566198,338.340845 259.704225,338.402816 259.822535,338.526761 C259.940846,338.650705 260,338.797182 260,338.966197 L260,339.033803 C260,339.202818 259.940846,339.349295 259.822535,339.473239 C259.704225,339.597184 259.566198,339.659155 259.408451,339.659155 L258.630986,339.659155 C258.552112,340.177467 258.400001,340.66197 258.174648,341.112676 C257.949295,341.563383 257.661974,341.963379 257.312676,342.312676 C256.963379,342.661974 256.563383,342.949295 256.112676,343.174648 C255.66197,343.400001 255.177467,343.552112 254.659155,343.630986 L254.659155,344.442254 C254.659155,344.588733 254.597184,344.718309 254.473239,344.830986 C254.349295,344.943663 254.202818,345 254.033803,345 L253.966197,345 C253.797182,345 253.650705,344.943663 253.526761,344.830986 C253.402816,344.718309 253.340845,344.588733 253.340845,344.442254 L253.340845,343.630986 C252.822533,343.552112 252.33803,343.400001 251.887324,343.174648 C251.436617,342.949295 251.036621,342.661974 250.687324,342.312676 C250.338026,341.963379 250.050705,341.563383 249.825352,341.112676 C249.599999,340.66197 249.447888,340.177467 249.369014,339.659155 L248.574648,339.659155 C248.416901,339.659155 248.281691,339.597184 248.169014,339.473239 C248.056337,339.349295 248,339.202818 248,339.033803 Z M250.63662,339 C250.63662,339.461974 250.723943,339.898589 250.898592,340.309859 C251.07324,340.721129 251.312675,341.078872 251.616901,341.383099 C251.921128,341.687325 252.278871,341.92676 252.690141,342.101408 C253.101411,342.276057 253.538026,342.36338 254,342.36338 C254.461974,342.36338 254.898589,342.276057 255.309859,342.101408 C255.721129,341.92676 256.078872,341.687325 256.383099,341.383099 C256.687325,341.078872 256.92676,340.721129 257.101408,340.309859 C257.276057,339.898589 257.36338,339.461974 257.36338,339 C257.36338,338.538026 257.276057,338.101411 257.101408,337.690141 C256.92676,337.278871 256.687325,336.921128 256.383099,336.616901 C256.078872,336.312675 255.721129,336.07324 255.309859,335.898592 C254.898589,335.723943 254.461974,335.63662 254,335.63662 C253.538026,335.63662 253.101411,335.723943 252.690141,335.898592 C252.278871,336.07324 251.921128,336.312675 251.616901,336.616901 C251.312675,336.921128 251.07324,337.278871 250.898592,337.690141 C250.723943,338.101411 250.63662,338.538026 250.63662,339 Z M252.022535,339 C252.022535,338.447885 252.214083,337.980284 252.597183,337.597183 C252.980284,337.214083 253.447885,337.022535 254,337.022535 C254.552115,337.022535 255.019716,337.214083 255.402817,337.597183 C255.785917,337.980284 255.977465,338.447885 255.977465,339 C255.977465,339.552115 255.785917,340.019716 255.402817,340.402817 C255.019716,340.785917 254.552115,340.977465 254,340.977465 C253.447885,340.977465 252.980284,340.785917 252.597183,340.402817 C252.214083,340.019716 252.022535,339.552115 252.022535,339 Z" id="locate-me"></path>
        </g>
    </g>
</svg>