<?xml version="1.0" encoding="UTF-8"?>
<svg width="51px" height="51px" viewBox="0 0 51 51" version="1.1" xmlns="http://www.w3.org/2000/svg" xmlns:xlink="http://www.w3.org/1999/xlink">
    <!-- Generator: Sketch 63.1 (92452) - https://sketch.com -->
    <title>opener</title>
    <desc>Created with Sketch.</desc>
    <g id="opener" stroke="none" stroke-width="1" fill="none" fill-rule="evenodd" stroke-linecap="round" stroke-linejoin="round">
        <g stroke="#000000" stroke-width="1.2">
            <path d="M50.895835,46.4288112 L50.895835,46.4288112 C50.895835,48.9104911 48.9104911,50.895835 46.4288112,50.895835 L4.57118695,50.895835 C2.08950882,50.895835 0.104166667,48.9104911 0.104166667,46.4288112 L0.104166667,4.57118695 C0.104166667,2.08950882 2.08950882,0.104166667 4.57118695,0.104166667 L46.4288112,0.104166667 C48.9104911,0.104166667 50.895835,2.08950882 50.895835,4.57118695 L50.895835,46.4288112 L50.895835,46.4288112 Z" id="Stroke-1"></path>
            <polyline id="Stroke-2" points="0.104166667 19.9239588 0.104166667 19.9239588 8.87276134 19.9239588 13.3397816 13.2989586 17.8067932 19.9239588 22.1083833 9.98645851 28.7261846 31.0208342 34.3513141 4.52083333 38.6528867 19.9239588 50.895835 19.9239588"></polyline>
            <polyline id="Stroke-3" points="8.9375 44.2708333 8.9375 44.2708333 8.9375 46.4791667"></polyline>
            <polyline id="Stroke-4" points="22.1875 44.2708333 22.1875 44.2708333 22.1875 46.4791667"></polyline>
            <polyline id="Stroke-5" points="35.4375 44.2708333 35.4375 44.2708333 35.4375 46.4791667"></polyline>
            <polyline id="Stroke-6" points="15.5625 39.8541667 15.5625 39.8541667 15.5625 46.4791669"></polyline>
            <polyline id="Stroke-7" points="28.8125 39.8541667 28.8125 39.8541667 28.8125 46.4791669"></polyline>
            <polyline id="Stroke-8" points="42.0625 39.8541667 42.0625 39.8541667 42.0625 46.4791669"></polyline>
        </g>
    </g>
</svg>