<?xml version="1.0" encoding="UTF-8"?>
<svg width="39px" height="39px" viewBox="0 0 39 39" version="1.1" xmlns="http://www.w3.org/2000/svg" xmlns:xlink="http://www.w3.org/1999/xlink">
    <!-- Generator: Sketch 63.1 (92452) - https://sketch.com -->
    <title>status-done-happy</title>
    <desc>Created with Sketch.</desc>
    <g id="status-done-happy" stroke="none" stroke-width="1" fill="none" fill-rule="evenodd" stroke-linecap="round" stroke-linejoin="round">
        <g id="Group-5" stroke="#000000">
            <path d="M38.1875012,19.5609757 L38.1875012,19.5609757 C38.1875012,29.8051521 29.7872618,38.2200012 19.4391335,38.2200012 C9.21274456,38.2200012 0.8125,29.8051521 0.8125,19.5609757 C0.8125,9.194854 9.21274456,0.78 19.4391335,0.78 C29.7872618,0.78 38.1875012,9.194854 38.1875012,19.5609757 L38.1875012,19.5609757 Z" id="Stroke-1"></path>
            <path d="M31.6875008,21.06 L31.6875008,21.06 C31.6875008,27.0660002 26.3250006,31.9800003 19.5000004,31.9800003 C12.7968752,31.9800003 7.3125,27.0660002 7.3125,21.06 L31.6875008,21.06 L31.6875008,21.06 Z" id="Stroke-2"></path>
            <path d="M15.4375,13.26 L15.4375,13.26 C15.4375,14.9933333 13.9658016,16.3800001 12.1261787,16.3800001 C10.4091986,16.3800001 8.9375,14.9933333 8.9375,13.26" id="Stroke-3"></path>
            <path d="M23.5625,13.26 L23.5625,13.26 C23.5625,14.9933333 25.0341986,16.3800001 26.7511787,16.3800001 C28.5908016,16.3800001 30.0625,14.9933333 30.0625,13.26" id="Stroke-4"></path>
        </g>
    </g>
</svg>